<?xml version="1.0" encoding="iso-8859-1"?>
<!-- Uploaded to: SVG Repo, www.svgrepo.com, Generator: SVG Repo Mixer Tools -->
<svg height="800px" width="800px" version="1.1" id="Layer_1" xmlns="http://www.w3.org/2000/svg" xmlns:xlink="http://www.w3.org/1999/xlink" 
	 viewBox="0 0 512 512" xml:space="preserve">
<path style="fill:#F2F2F2;" d="M321.32,255.999c42.289-23.178,71.027-68.12,71.027-119.652V16.696
	c0-9.22-7.475-16.696-16.696-16.696H136.349c-9.22,0-16.696,7.475-16.696,16.696v119.651c0,51.532,28.738,96.473,71.027,119.652
	c-42.289,23.178-71.028,68.12-71.028,119.653v20.068c0,9.22,7.475,16.696,16.696,16.696h239.304c9.22,0,16.696-7.475,16.696-16.696
	v-20.068C392.348,324.119,363.609,279.177,321.32,255.999z"/>
<path style="fill:#CDD6E0;" d="M321.32,255.999c42.289-23.178,71.027-68.12,71.027-119.652V16.696
	c0-9.22-7.475-16.696-16.696-16.696H256v412.416h119.652c9.22,0,16.696-7.475,16.696-16.696v-20.068
	C392.348,324.119,363.609,279.177,321.32,255.999z"/>
<path style="fill:#FF7058;" d="M429.824,33.391H82.176c-9.22,0-16.696-7.475-16.696-16.696S72.956,0,82.176,0h347.648
	c9.22,0,16.696,7.475,16.696,16.696S439.044,33.391,429.824,33.391z"/>
<path style="fill:#FFD15C;" d="M375.652,512H136.348c-9.22,0-16.696-7.475-16.696-16.696v-116.28h272.696v116.28
	C392.348,504.525,384.873,512,375.652,512z"/>
<path style="fill:#F8B64C;" d="M256,379.025V512h119.652c9.22,0,16.696-7.475,16.696-16.696v-116.28H256z"/>
<path style="fill:#FF7058;" d="M429.824,512H82.176c-9.22,0-16.696-7.475-16.696-16.696s7.475-16.696,16.696-16.696h347.648
	c9.22,0,16.696,7.475,16.696,16.696S439.044,512,429.824,512z"/>
<g>
	<path style="fill:#F1543F;" d="M429.824,0H256v33.391h173.824c9.22,0,16.696-7.475,16.696-16.696S439.044,0,429.824,0z"/>
	<path style="fill:#F1543F;" d="M429.824,478.609H256V512h173.824c9.22,0,16.696-7.475,16.696-16.696
		S439.044,478.609,429.824,478.609z"/>
</g>
</svg>